# xmcd
#
# Track frame offsets: 
#        150
#        10747
#        25281
#        37332
#        47073
#        61293
#        72178
#        85758
#        96665
#        117803
#        131727
#        149830
#        165983
#        179975
#        195503
#        214153
#        225489
#        238853
#
# Disc length: 3371 seconds
#
# Revision: 0
# Processed by: cddbd v1.5.2PL0 Copyright (c) Steve Scherf et al.
# Submitted via: ExactAudioCopy v0.99pb4
#
DISCID=0c0d2912
DTITLE=Heritage - BlueGrass Plus
DYEAR=2006
DGENRE=Bluegrass
TTITLE0=Fiireball
TTITLE1=Rock, Salt and Nails
TTITLE2=Walkin'
TTITLE3=Sally Don't You Grieve
TTITLE4=Chunk Of Coal
TTITLE5=Mountain Girl
TTITLE6=Popping Corn
TTITLE7=Sweet Heart of Mine
TTITLE8=I Never Knew
TTITLE9=Wheels
TTITLE10=Erase the Miles
TTITLE11=Copenhagen
TTITLE12=Make the World Go Away
TTITLE13=Winter In Miami
TTITLE14=Your Cheating Heart
TTITLE15=There's More Pretty Girls Than One
TTITLE16=Good Womans Love
TTITLE17=Never Ending Love
EXTD=
EXTT0=
EXTT1=
EXTT2=
EXTT3=
EXTT4=
EXTT5=
EXTT6=
EXTT7=
EXTT8=
EXTT9=
EXTT10=
EXTT11=
EXTT12=
EXTT13=
EXTT14=
EXTT15=
EXTT16=
EXTT17=
PLAYORDER=
